<?xml version="1.0" standalone="no"?><!DOCTYPE svg PUBLIC "-//W3C//DTD SVG 1.1//EN" "http://www.w3.org/Graphics/SVG/1.1/DTD/svg11.dtd"><svg t="1564189149979" class="icon" viewBox="0 0 1024 1024" version="1.1" xmlns="http://www.w3.org/2000/svg" p-id="992" xmlns:xlink="http://www.w3.org/1999/xlink" width="200" height="200"><defs><style type="text/css"></style></defs><path d="M512 512m-488.727273 0a488.727273 488.727273 0 1 0 977.454546 0 488.727273 488.727273 0 1 0-977.454546 0Z" fill="#F5F6F7" p-id="993"></path><path d="M512 849.268364c-153.693091 0-279.086545-128-279.086545-284.904728 0-156.858182 125.393455-284.858182 279.086545-284.858181 153.693091 0 279.086545 128 279.086545 284.858181s-125.393455 284.858182-279.086545 284.858182z m0-507.345455c-120.087273 0-217.925818 99.886545-217.925818 222.440727S391.959273 786.804364 512 786.804364c120.087273 0 217.925818-99.886545 217.925818-222.440728S632.040727 341.876364 512 341.876364z" fill="#5394FC" p-id="994"></path><path d="M439.389091 589.358545a30.999273 30.999273 0 0 1-30.626909-31.232v-31.185454c0-17.221818 13.777455-31.278545 30.580363-31.278546 16.849455 0 30.580364 14.056727 30.580364 31.232v31.185455c0 17.221818-13.730909 31.278545-30.580364 31.278545z m145.221818 0a30.999273 30.999273 0 0 1-30.533818-31.232v-31.185454c0-17.221818 13.730909-31.278545 30.580364-31.278546 16.802909 0 30.580364 14.056727 30.580363 31.232v31.185455c0 17.221818-13.777455 31.278545-30.580363 31.278545z m123.904 387.909819a30.999273 30.999273 0 0 1-30.580364-31.232c0-39.051636-9.169455-67.118545-28.299636-84.293819-26.018909-24.203636-62.696727-21.085091-62.696727-21.08509a30.301091 30.301091 0 0 1-32.861091-28.113455 30.580364 30.580364 0 0 1 27.461818-33.512727c2.327273 0 63.488-5.492364 109.381818 36.631272 32.116364 29.696 48.174545 74.146909 48.174546 131.165091 0 16.384-13.032727 30.440727-30.580364 30.440728z m-393.029818 0a30.999273 30.999273 0 0 1-30.580364-31.232c0-57.762909 16.058182-101.469091 48.174546-131.118546 45.893818-42.961455 107.054545-36.677818 109.381818-36.677818 16.756364 1.536 28.997818 17.128727 27.461818 34.304a30.766545 30.766545 0 0 1-32.861091 28.113455c-0.744727 0-37.469091-2.327273-62.696727 21.08509-18.338909 17.175273-28.299636 46.08-28.299636 84.247273 0 17.221818-13.777455 31.278545-30.580364 31.278546z" fill="#5394FC" p-id="995"></path></svg>