<?xml version="1.0" encoding="UTF-8" ?>
<!DOCTYPE svg PUBLIC "-//W3C//DTD SVG 1.1//EN" "http://www.w3.org/Graphics/SVG/1.1/DTD/svg11.dtd">
<svg width="833pt" height="459pt" viewBox="0 0 833 459" version="1.1" xmlns="http://www.w3.org/2000/svg">
<path fill="#ffffff" d=" M 0.00 0.00 L 187.87 0.00 C 187.93 118.18 187.76 236.36 187.96 354.54 C 255.95 354.58 323.95 354.33 391.95 354.80 C 426.22 354.29 460.50 354.60 494.78 354.54 C 494.88 349.36 494.89 344.18 494.85 339.01 C 397.69 338.97 300.54 339.05 203.38 338.97 C 203.40 251.67 203.39 164.38 203.38 77.09 C 352.72 77.02 502.06 77.07 651.39 77.07 C 651.43 137.73 651.41 198.39 651.40 259.04 C 656.59 259.15 661.77 259.16 666.96 259.10 C 666.96 172.73 667.06 86.37 666.91 0.00 L 833.00 0.00 L 833.00 206.40 C 831.96 198.89 827.71 191.81 821.17 187.86 C 812.48 182.32 800.43 183.00 792.41 189.47 C 784.23 195.72 780.79 207.25 784.10 216.99 C 785.28 220.65 787.60 223.77 789.87 226.82 C 774.83 246.82 759.79 266.82 744.76 286.82 C 738.85 284.33 732.18 283.03 725.92 285.01 C 720.07 286.48 715.42 290.58 711.68 295.13 C 687.45 285.91 663.22 276.66 639.07 267.25 C 639.27 257.86 634.73 248.30 626.35 243.68 C 615.52 237.12 600.12 240.55 593.14 251.13 C 587.24 259.19 587.70 270.24 592.23 278.81 C 577.26 296.68 562.35 314.59 547.38 332.46 C 544.37 335.86 541.83 339.70 538.48 342.78 C 535.53 342.40 532.79 341.10 529.88 340.58 C 521.70 339.22 513.00 342.35 507.49 348.52 C 501.55 354.93 499.44 364.58 502.19 372.88 C 505.36 383.35 516.02 390.90 526.97 390.29 C 538.11 390.16 548.37 381.59 550.62 370.70 C 552.16 364.31 550.51 357.74 547.65 351.97 C 565.53 330.40 583.52 308.92 601.53 287.46 C 607.88 290.32 615.24 291.46 621.93 289.04 C 627.26 287.39 631.42 283.48 634.91 279.28 C 659.14 288.54 683.36 297.81 707.55 307.16 C 707.60 313.91 709.40 320.87 714.18 325.87 C 720.65 333.20 731.60 336.00 740.82 332.79 C 750.14 329.78 757.14 320.85 757.81 311.07 C 758.45 305.52 756.39 300.21 754.12 295.27 C 769.80 274.75 785.14 253.96 800.79 233.41 C 807.22 234.53 814.20 234.49 819.99 231.09 C 826.80 227.57 831.08 220.67 833.00 213.43 L 833.00 459.00 L 665.73 459.00 C 667.56 457.77 669.77 456.42 670.07 454.01 C 670.83 450.71 668.43 446.92 664.95 446.69 C 659.98 446.23 654.93 446.21 649.98 446.75 C 646.12 447.20 643.85 452.05 645.67 455.39 C 646.56 456.75 647.79 457.84 648.93 459.00 L 634.37 459.00 C 637.21 457.60 639.70 454.65 638.72 451.29 C 638.04 447.77 634.33 446.18 631.06 446.45 C 590.04 446.52 549.01 446.43 507.99 446.49 C 504.67 446.26 501.31 448.58 501.03 452.04 C 500.44 455.07 503.00 457.13 504.92 459.00 L 0.00 459.00 L 0.00 348.35 C 1.13 349.97 2.21 352.07 4.35 352.49 C 8.52 353.23 12.79 352.79 17.01 352.86 C 54.68 352.85 92.35 352.85 130.02 352.87 C 133.07 353.07 136.52 351.81 137.49 348.64 C 139.11 344.55 135.46 339.89 131.12 340.32 C 89.74 340.23 48.35 340.27 6.97 340.30 C 4.04 339.99 1.91 342.09 0.00 343.96 L 0.00 0.00 Z" />
<path fill="#E2E2E2" d=" M 187.87 0.00 L 666.91 0.00 C 667.06 86.37 666.96 172.73 666.96 259.10 C 661.77 259.16 656.59 259.15 651.40 259.04 C 651.41 198.39 651.43 137.73 651.39 77.07 C 502.06 77.07 352.72 77.02 203.38 77.09 C 203.39 164.38 203.40 251.67 203.38 338.97 C 300.54 339.05 397.69 338.97 494.85 339.01 C 494.89 344.18 494.88 349.36 494.78 354.54 C 460.50 354.60 426.22 354.29 391.95 354.80 C 323.95 354.33 255.95 354.58 187.96 354.54 C 187.76 236.36 187.93 118.18 187.87 0.00 Z" />
<path fill="#ffffff" d=" M 203.41 15.47 C 352.75 15.50 502.09 15.35 651.43 15.54 C 651.40 30.86 651.37 46.18 651.45 61.50 C 601.32 61.75 551.19 61.54 501.06 61.61 C 401.84 61.60 302.62 61.63 203.41 61.60 C 203.38 46.22 203.37 30.84 203.41 15.47 Z" />
<path fill="#E2E2E2" d=" M 223.41 31.42 C 228.43 29.01 234.89 33.43 234.25 39.01 C 234.20 44.85 226.65 48.41 222.06 44.87 C 217.16 41.75 217.98 33.50 223.41 31.42 Z" />
<path fill="#E2E2E2" d=" M 254.27 31.43 C 259.32 28.98 265.85 33.45 265.15 39.08 C 265.05 44.84 257.64 48.36 253.05 44.92 C 248.07 41.88 248.84 33.55 254.27 31.43 Z" />
<path fill="#E2E2E2" d=" M 285.31 31.38 C 290.34 29.04 296.72 33.50 296.06 39.04 C 295.99 44.82 288.56 48.37 283.95 44.93 C 278.93 41.85 279.77 33.41 285.31 31.38 Z" />
<path fill="#E2E2E2" d=" M 590.54 100.52 C 592.33 96.80 598.51 97.19 599.73 101.17 C 600.31 104.18 600.04 107.27 600.07 110.32 C 603.33 110.45 606.77 109.86 609.92 110.99 C 613.47 112.64 613.40 118.32 609.84 119.94 C 606.70 120.87 603.37 120.38 600.15 120.42 C 599.95 123.74 600.53 127.26 599.40 130.43 C 597.53 134.06 591.62 133.65 590.30 129.79 C 589.68 126.71 589.94 123.55 589.89 120.44 C 586.63 120.38 583.26 120.88 580.11 119.91 C 576.61 118.28 576.54 112.70 580.02 111.02 C 583.16 109.85 586.64 110.46 589.93 110.32 C 590.04 107.07 589.47 103.65 590.54 100.52 Z" />
<path fill="#E2E2E2" d=" M 350.71 134.09 C 367.44 134.08 384.17 134.06 400.90 134.10 C 400.93 139.12 400.91 144.14 400.95 149.16 C 389.46 160.89 377.64 172.29 366.15 184.04 C 377.73 184.15 389.32 184.02 400.90 184.10 C 400.94 188.31 400.94 192.52 400.87 196.73 C 384.19 196.75 367.50 196.66 350.82 196.78 C 350.72 191.83 350.38 186.86 350.83 181.93 C 352.49 179.03 355.34 177.05 357.60 174.64 C 366.81 165.34 376.22 156.24 385.30 146.82 C 373.80 146.62 362.29 146.74 350.79 146.76 C 350.64 142.54 350.63 138.31 350.71 134.09 Z" />
<path fill="#E2E2E2" d=" M 792.41 189.47 C 800.43 183.00 812.48 182.32 821.17 187.86 C 827.71 191.81 831.96 198.89 833.00 206.40 L 833.00 213.43 C 831.08 220.67 826.80 227.57 819.99 231.09 C 814.20 234.49 807.22 234.53 800.79 233.41 C 785.14 253.96 769.80 274.75 754.12 295.27 C 756.39 300.21 758.45 305.52 757.81 311.07 C 757.14 320.85 750.14 329.78 740.82 332.79 C 731.60 336.00 720.65 333.20 714.18 325.87 C 709.40 320.87 707.60 313.91 707.55 307.16 C 683.36 297.81 659.14 288.54 634.91 279.28 C 631.42 283.48 627.26 287.39 621.93 289.04 C 615.24 291.46 607.88 290.32 601.53 287.46 C 583.52 308.92 565.53 330.40 547.65 351.97 C 550.51 357.74 552.16 364.31 550.62 370.70 C 548.37 381.59 538.11 390.16 526.97 390.29 C 516.02 390.90 505.36 383.35 502.19 372.88 C 499.44 364.58 501.55 354.93 507.49 348.52 C 513.00 342.35 521.70 339.22 529.88 340.58 C 532.79 341.10 535.53 342.40 538.48 342.78 C 541.83 339.70 544.37 335.86 547.38 332.46 C 562.35 314.59 577.26 296.68 592.23 278.81 C 587.70 270.24 587.24 259.19 593.14 251.13 C 600.12 240.55 615.52 237.12 626.35 243.68 C 634.73 248.30 639.27 257.86 639.07 267.25 C 663.22 276.66 687.45 285.91 711.68 295.13 C 715.42 290.58 720.07 286.48 725.92 285.01 C 732.18 283.03 738.85 284.33 744.76 286.82 C 759.79 266.82 774.83 246.82 789.87 226.82 C 787.60 223.77 785.28 220.65 784.10 216.99 C 780.79 207.25 784.23 195.72 792.41 189.47 Z" />
<path fill="#E2E2E2" d=" M 413.30 207.77 C 413.21 204.02 413.25 200.28 413.43 196.54 C 428.28 196.71 443.12 196.54 457.97 196.63 C 457.99 201.11 457.98 205.58 457.98 210.05 C 447.63 220.33 437.35 230.66 427.01 240.95 C 437.33 241.12 447.64 240.95 457.96 241.04 C 457.99 244.75 457.99 248.46 457.97 252.18 C 443.07 252.15 428.17 252.29 413.27 252.10 C 413.34 248.03 413.09 243.94 413.34 239.87 C 413.23 238.66 414.32 237.88 414.99 237.04 C 424.71 227.30 434.54 217.67 444.19 207.86 C 433.89 207.69 423.60 207.86 413.30 207.77 Z" />
<path fill="#ffffff" d=" M 804.30 197.25 C 811.16 194.92 819.19 199.87 820.22 207.02 C 821.56 213.61 816.52 220.53 809.89 221.40 C 803.68 222.55 797.14 218.14 795.83 211.98 C 794.19 205.82 798.21 198.98 804.30 197.25 Z" />
<path fill="#E2E2E2" d=" M 469.00 248.82 C 481.79 248.80 494.58 248.80 507.36 248.82 C 507.38 252.62 507.39 256.42 507.45 260.23 C 498.68 269.25 489.62 278.01 480.79 286.98 C 489.65 287.02 498.51 286.99 507.37 287.00 C 507.38 290.18 507.40 293.37 507.43 296.55 C 494.63 296.80 481.82 296.58 469.02 296.67 C 468.99 292.79 469.00 288.91 469.00 285.03 C 477.72 276.15 486.82 267.63 495.28 258.51 C 486.52 258.39 477.76 258.51 469.00 258.45 C 469.00 255.24 469.00 252.03 469.00 248.82 Z" />
<path fill="#ffffff" d=" M 611.13 253.20 C 618.07 251.49 625.64 256.90 626.17 264.04 C 627.07 270.64 621.71 277.14 615.13 277.72 C 609.00 278.51 602.78 274.03 601.61 267.96 C 600.01 261.50 604.65 254.49 611.13 253.20 Z" />
<path fill="#E2E2E2" d=" M 252.36 275.38 C 254.10 271.87 259.81 272.03 261.34 275.65 C 262.26 278.75 261.78 282.06 261.88 285.25 C 265.02 285.32 268.24 284.94 271.31 285.72 C 275.12 287.08 275.38 293.03 271.75 294.78 C 268.62 295.84 265.23 295.29 261.99 295.36 C 261.78 298.63 262.27 302.07 261.25 305.23 C 259.49 308.91 253.53 308.64 252.13 304.81 C 251.47 301.72 251.75 298.53 251.72 295.40 C 248.51 295.36 245.22 295.71 242.08 294.91 C 238.37 293.35 238.27 287.46 241.97 285.83 C 245.13 284.90 248.51 285.34 251.77 285.16 C 251.85 281.91 251.27 278.50 252.36 275.38 Z" />
<path fill="#ffffff" d=" M 728.37 297.45 C 735.35 294.55 744.06 299.52 745.07 307.02 C 746.35 313.52 741.48 320.32 734.96 321.31 C 728.76 322.58 722.18 318.29 720.72 312.16 C 719.03 306.23 722.61 299.54 728.37 297.45 Z" />
<path fill="#E2E2E2" d=" M 651.40 309.07 C 656.59 308.97 661.78 309.00 666.97 309.05 C 666.94 324.22 667.08 339.38 666.90 354.55 C 632.46 354.41 598.01 354.71 563.57 354.40 C 563.62 349.27 563.60 344.13 563.62 339.00 C 592.88 339.00 622.14 339.01 651.40 338.99 C 651.42 329.02 651.41 319.04 651.40 309.07 Z" />
<path fill="#E2E2E2" d=" M 0.00 343.96 C 1.91 342.09 4.04 339.99 6.97 340.30 C 48.35 340.27 89.74 340.23 131.12 340.32 C 135.46 339.89 139.11 344.55 137.49 348.64 C 136.52 351.81 133.07 353.07 130.02 352.87 C 92.35 352.85 54.68 352.85 17.01 352.86 C 12.79 352.79 8.52 353.23 4.35 352.49 C 2.21 352.07 1.13 349.97 0.00 348.35 L 0.00 343.96 Z" />
<path fill="#E2E2E2" d=" M 148.43 340.59 C 153.56 339.98 158.79 340.17 163.94 340.44 C 168.62 340.87 170.81 347.25 167.67 350.62 C 165.06 353.75 160.57 352.66 157.01 352.91 C 153.34 352.58 148.88 353.83 145.90 351.06 C 142.48 348.02 143.98 341.68 148.43 340.59 Z" />
<path fill="#ffffff" d=" M 522.34 353.44 C 528.80 351.23 536.48 355.38 538.11 362.02 C 540.00 368.14 536.16 375.19 530.07 377.07 C 523.38 379.60 515.27 374.96 513.95 367.96 C 512.44 361.88 516.37 355.22 522.34 353.44 Z" />
<path fill="#E2E2E2" d=" M 501.03 452.04 C 501.31 448.58 504.67 446.26 507.99 446.49 C 549.01 446.43 590.04 446.52 631.06 446.45 C 634.33 446.18 638.04 447.77 638.72 451.29 C 639.70 454.65 637.21 457.60 634.37 459.00 L 504.92 459.00 C 503.00 457.13 500.44 455.07 501.03 452.04 Z" />
<path fill="#E2E2E2" d=" M 645.67 455.39 C 643.85 452.05 646.12 447.20 649.98 446.75 C 654.93 446.21 659.98 446.23 664.95 446.69 C 668.43 446.92 670.83 450.71 670.07 454.01 C 669.77 456.42 667.56 457.77 665.73 459.00 L 648.93 459.00 C 647.79 457.84 646.56 456.75 645.67 455.39 Z" />
</svg>
